<svg xmlns="http://www.w3.org/2000/svg" viewBox="0 0 512 512" width="512" height="512">
  <defs>
    <style>
      @import url('https://fonts.googleapis.com/css2?family=EB+Garamond:wght@500&amp;display=swap');
    </style>
  </defs>
  <rect width="512" height="512" rx="112" fill="#1a1410"/>
  <rect width="512" height="512" rx="112" fill="none" stroke="#9a7c3f" stroke-width="6"/>
  <line x1="56" y1="128" x2="456" y2="128" stroke="#9a7c3f" stroke-width="2.5" opacity="0.55"/>
  <line x1="56" y1="384" x2="456" y2="384" stroke="#9a7c3f" stroke-width="2.5" opacity="0.55"/>
  <circle cx="256" cy="238" r="9" fill="#c9a96e"/>
  <line x1="256" y1="229" x2="256" y2="148" stroke="#c9a96e" stroke-width="5" stroke-linecap="round"/>
  <line x1="249" y1="233" x2="190" y2="174" stroke="#c9a96e" stroke-width="4.5" stroke-linecap="round"/>
  <line x1="263" y1="233" x2="322" y2="174" stroke="#c9a96e" stroke-width="4.5" stroke-linecap="round"/>
  <line x1="247" y1="238" x2="166" y2="238" stroke="#c9a96e" stroke-width="4.5" stroke-linecap="round"/>
  <line x1="265" y1="238" x2="346" y2="238" stroke="#c9a96e" stroke-width="4.5" stroke-linecap="round"/>
  <line x1="249" y1="244" x2="200" y2="293" stroke="#9a7c3f" stroke-width="4" stroke-linecap="round"/>
  <line x1="263" y1="244" x2="312" y2="293" stroke="#9a7c3f" stroke-width="4" stroke-linecap="round"/>
  <line x1="256" y1="247" x2="256" y2="308" stroke="#9a7c3f" stroke-width="4" stroke-linecap="round"/>
  <circle cx="256" cy="142" r="8" fill="none" stroke="#c9a96e" stroke-width="3.5"/>
  <circle cx="186" cy="170" r="8" fill="none" stroke="#c9a96e" stroke-width="3.5"/>
  <circle cx="326" cy="170" r="8" fill="none" stroke="#c9a96e" stroke-width="3.5"/>
  <circle cx="160" cy="238" r="8" fill="none" stroke="#c9a96e" stroke-width="3.5"/>
  <circle cx="352" cy="238" r="8" fill="none" stroke="#c9a96e" stroke-width="3.5"/>
  <circle cx="196" cy="298" r="6" fill="#9a7c3f" opacity="0.75"/>
  <circle cx="316" cy="298" r="6" fill="#9a7c3f" opacity="0.75"/>
  <circle cx="256" cy="314" r="6" fill="#9a7c3f" opacity="0.75"/>
  <text x="256" y="136" text-anchor="middle" font-family="Georgia, serif" font-size="20" fill="#c9a96e" opacity="0.7">*</text>
  <text x="256" y="370" text-anchor="middle" font-family="'EB Garamond', Georgia, serif" font-size="52" font-weight="500" letter-spacing="16" fill="#c9a96e">PIE</text>
</svg>
